<mxfile host="app.diagrams.net" modified="2023-05-01T20:46:33.850Z" agent="Mozilla/5.0 (Windows NT 10.0; Win64; x64) AppleWebKit/537.36 (KHTML, like Gecko) Chrome/112.0.0.0 Safari/537.36" etag="D-dCAd6f0hDe07ESi7Y9" version="21.1.4" type="device">
  <diagram name="Page-1" id="TJjx6MU0pp1zMI2QiDek">
    <mxGraphModel dx="880" dy="494" grid="1" gridSize="10" guides="1" tooltips="1" connect="1" arrows="1" fold="1" page="1" pageScale="1" pageWidth="850" pageHeight="1100" math="0" shadow="0">
      <root>
        <mxCell id="0" />
        <mxCell id="1" parent="0" />
        <mxCell id="jtq-as74lgabXd-jvM-n-3" value="User" style="shape=umlActor;verticalLabelPosition=bottom;verticalAlign=top;html=1;fontFamily=Poppins;fontSource=https%3A%2F%2Ffonts.googleapis.com%2Fcss%3Ffamily%3DPoppins;" parent="1" vertex="1">
          <mxGeometry x="10" y="623" width="30" height="60" as="geometry" />
        </mxCell>
        <mxCell id="jtq-as74lgabXd-jvM-n-4" value="Admin" style="shape=umlActor;verticalLabelPosition=bottom;verticalAlign=top;html=1;fontFamily=Poppins;fontSource=https%3A%2F%2Ffonts.googleapis.com%2Fcss%3Ffamily%3DPoppins;" parent="1" vertex="1">
          <mxGeometry x="810" y="623" width="30" height="60" as="geometry" />
        </mxCell>
        <mxCell id="jtq-as74lgabXd-jvM-n-6" value="View Restaurant" style="ellipse;whiteSpace=wrap;html=1;fontFamily=Poppins;fontSource=https%3A%2F%2Ffonts.googleapis.com%2Fcss%3Ffamily%3DPoppins;" parent="1" vertex="1">
          <mxGeometry x="190.15" y="440" width="140" height="70" as="geometry" />
        </mxCell>
        <mxCell id="jtq-as74lgabXd-jvM-n-7" value="View Menu" style="ellipse;whiteSpace=wrap;html=1;fontFamily=Poppins;fontSource=https%3A%2F%2Ffonts.googleapis.com%2Fcss%3Ffamily%3DPoppins;" parent="1" vertex="1">
          <mxGeometry x="180" y="553" width="140" height="70" as="geometry" />
        </mxCell>
        <mxCell id="jtq-as74lgabXd-jvM-n-9" value="Upload/view&amp;nbsp;&lt;br&gt;Vlog" style="ellipse;whiteSpace=wrap;html=1;fontFamily=Poppins;fontSource=https%3A%2F%2Ffonts.googleapis.com%2Fcss%3Ffamily%3DPoppins;" parent="1" vertex="1">
          <mxGeometry x="190.15" y="910" width="140" height="70" as="geometry" />
        </mxCell>
        <mxCell id="jtq-as74lgabXd-jvM-n-10" value="Fetch Location" style="ellipse;whiteSpace=wrap;html=1;fontFamily=Poppins;fontSource=https%3A%2F%2Ffonts.googleapis.com%2Fcss%3Ffamily%3DPoppins;" parent="1" vertex="1">
          <mxGeometry x="400" y="400" width="140" height="70" as="geometry" />
        </mxCell>
        <mxCell id="jtq-as74lgabXd-jvM-n-15" value="Add /Manage&lt;br style=&quot;border-color: var(--border-color);&quot;&gt;restaurant" style="ellipse;whiteSpace=wrap;html=1;fontFamily=Poppins;fontSource=https%3A%2F%2Ffonts.googleapis.com%2Fcss%3Ffamily%3DPoppins;" parent="1" vertex="1">
          <mxGeometry x="550" y="603" width="140" height="70" as="geometry" />
        </mxCell>
        <mxCell id="jtq-as74lgabXd-jvM-n-21" value="" style="endArrow=none;html=1;rounded=0;entryX=0;entryY=0.5;entryDx=0;entryDy=0;fontFamily=Poppins;fontSource=https%3A%2F%2Ffonts.googleapis.com%2Fcss%3Ffamily%3DPoppins;" parent="1" target="jtq-as74lgabXd-jvM-n-6" edge="1">
          <mxGeometry width="50" height="50" relative="1" as="geometry">
            <mxPoint x="50" y="640" as="sourcePoint" />
            <mxPoint x="251" y="385" as="targetPoint" />
          </mxGeometry>
        </mxCell>
        <mxCell id="jtq-as74lgabXd-jvM-n-22" value="" style="endArrow=none;html=1;rounded=0;entryX=0;entryY=0.5;entryDx=0;entryDy=0;fontFamily=Poppins;fontSource=https%3A%2F%2Ffonts.googleapis.com%2Fcss%3Ffamily%3DPoppins;" parent="1" target="jtq-as74lgabXd-jvM-n-7" edge="1">
          <mxGeometry width="50" height="50" relative="1" as="geometry">
            <mxPoint x="50" y="650" as="sourcePoint" />
            <mxPoint x="250" y="495" as="targetPoint" />
          </mxGeometry>
        </mxCell>
        <mxCell id="jtq-as74lgabXd-jvM-n-23" value="" style="endArrow=none;html=1;rounded=0;entryX=0;entryY=0.5;entryDx=0;entryDy=0;fontFamily=Poppins;fontSource=https%3A%2F%2Ffonts.googleapis.com%2Fcss%3Ffamily%3DPoppins;" parent="1" target="jtq-as74lgabXd-jvM-n-8" edge="1">
          <mxGeometry width="50" height="50" relative="1" as="geometry">
            <mxPoint x="50" y="680" as="sourcePoint" />
            <mxPoint x="251" y="595" as="targetPoint" />
          </mxGeometry>
        </mxCell>
        <mxCell id="jtq-as74lgabXd-jvM-n-25" value="" style="endArrow=none;html=1;rounded=0;entryX=0;entryY=0.5;entryDx=0;entryDy=0;fontFamily=Poppins;fontSource=https%3A%2F%2Ffonts.googleapis.com%2Fcss%3Ffamily%3DPoppins;" parent="1" target="jtq-as74lgabXd-jvM-n-9" edge="1">
          <mxGeometry width="50" height="50" relative="1" as="geometry">
            <mxPoint x="40" y="700" as="sourcePoint" />
            <mxPoint x="250" y="805" as="targetPoint" />
          </mxGeometry>
        </mxCell>
        <mxCell id="jtq-as74lgabXd-jvM-n-30" value="" style="html=1;verticalAlign=bottom;labelBackgroundColor=none;endArrow=open;endFill=0;dashed=1;rounded=0;exitX=0.956;exitY=0.308;exitDx=0;exitDy=0;exitPerimeter=0;entryX=0.014;entryY=0.614;entryDx=0;entryDy=0;entryPerimeter=0;fontFamily=Poppins;fontSource=https%3A%2F%2Ffonts.googleapis.com%2Fcss%3Ffamily%3DPoppins;" parent="1" source="jtq-as74lgabXd-jvM-n-6" target="jtq-as74lgabXd-jvM-n-10" edge="1">
          <mxGeometry width="160" relative="1" as="geometry">
            <mxPoint x="277" y="415" as="sourcePoint" />
            <mxPoint x="421" y="367" as="targetPoint" />
          </mxGeometry>
        </mxCell>
        <mxCell id="jtq-as74lgabXd-jvM-n-31" value="&amp;lt;&amp;lt;include&amp;gt;&amp;gt;" style="text;html=1;align=center;verticalAlign=middle;resizable=0;points=[];autosize=1;strokeColor=none;fillColor=none;rotation=-15;fontFamily=Poppins;fontSource=https%3A%2F%2Ffonts.googleapis.com%2Fcss%3Ffamily%3DPoppins;" parent="1" vertex="1">
          <mxGeometry x="307.06" y="430" width="90" height="30" as="geometry" />
        </mxCell>
        <mxCell id="jtq-as74lgabXd-jvM-n-34" value="" style="endArrow=none;html=1;rounded=0;exitX=1;exitY=0.5;exitDx=0;exitDy=0;fontFamily=Poppins;fontSource=https%3A%2F%2Ffonts.googleapis.com%2Fcss%3Ffamily%3DPoppins;" parent="1" source="jtq-as74lgabXd-jvM-n-15" edge="1">
          <mxGeometry width="50" height="50" relative="1" as="geometry">
            <mxPoint x="630" y="640" as="sourcePoint" />
            <mxPoint x="800" y="660" as="targetPoint" />
          </mxGeometry>
        </mxCell>
        <mxCell id="jtq-as74lgabXd-jvM-n-38" value="" style="endArrow=none;html=1;rounded=0;exitX=0.965;exitY=0.312;exitDx=0;exitDy=0;exitPerimeter=0;fontFamily=Poppins;fontSource=https%3A%2F%2Ffonts.googleapis.com%2Fcss%3Ffamily%3DPoppins;" parent="1" source="jtq-as74lgabXd-jvM-n-37" edge="1">
          <mxGeometry width="50" height="50" relative="1" as="geometry">
            <mxPoint x="654" y="619" as="sourcePoint" />
            <mxPoint x="800" y="670" as="targetPoint" />
            <Array as="points">
              <mxPoint x="800" y="670" />
            </Array>
          </mxGeometry>
        </mxCell>
        <mxCell id="jtq-as74lgabXd-jvM-n-40" value="Register" style="ellipse;whiteSpace=wrap;html=1;fontFamily=Poppins;fontSource=https%3A%2F%2Ffonts.googleapis.com%2Fcss%3Ffamily%3DPoppins;" parent="1" vertex="1">
          <mxGeometry x="190.15" y="350" width="140" height="70" as="geometry" />
        </mxCell>
        <mxCell id="jtq-as74lgabXd-jvM-n-41" value="" style="endArrow=none;html=1;rounded=0;entryX=0.018;entryY=0.636;entryDx=0;entryDy=0;entryPerimeter=0;fontFamily=Poppins;fontSource=https%3A%2F%2Ffonts.googleapis.com%2Fcss%3Ffamily%3DPoppins;" parent="1" target="jtq-as74lgabXd-jvM-n-40" edge="1">
          <mxGeometry width="50" height="50" relative="1" as="geometry">
            <mxPoint x="50" y="620" as="sourcePoint" />
            <mxPoint x="364" y="458" as="targetPoint" />
          </mxGeometry>
        </mxCell>
        <mxCell id="jtq-as74lgabXd-jvM-n-43" value="Reviews Restaurant&lt;br&gt;request&lt;br&gt;" style="ellipse;whiteSpace=wrap;html=1;fontFamily=Poppins;fontSource=https%3A%2F%2Ffonts.googleapis.com%2Fcss%3Ffamily%3DPoppins;" parent="1" vertex="1">
          <mxGeometry x="550" y="820" width="140" height="70" as="geometry" />
        </mxCell>
        <mxCell id="jtq-as74lgabXd-jvM-n-44" value="" style="endArrow=none;html=1;rounded=0;exitX=1;exitY=0.5;exitDx=0;exitDy=0;fontFamily=Poppins;fontSource=https%3A%2F%2Ffonts.googleapis.com%2Fcss%3Ffamily%3DPoppins;" parent="1" source="jtq-as74lgabXd-jvM-n-43" edge="1">
          <mxGeometry width="50" height="50" relative="1" as="geometry">
            <mxPoint x="645" y="762" as="sourcePoint" />
            <mxPoint x="800" y="690" as="targetPoint" />
          </mxGeometry>
        </mxCell>
        <mxCell id="2IEu2YH2djYl5DKp_pkP-1" value="" style="html=1;verticalAlign=bottom;labelBackgroundColor=none;endArrow=open;endFill=0;dashed=1;rounded=0;fontFamily=Poppins;fontSource=https%3A%2F%2Ffonts.googleapis.com%2Fcss%3Ffamily%3DPoppins;" parent="1" source="jtq-as74lgabXd-jvM-n-8" target="jtq-as74lgabXd-jvM-n-43" edge="1">
          <mxGeometry width="160" relative="1" as="geometry">
            <mxPoint x="364.02" y="589.72" as="sourcePoint" />
            <mxPoint x="549.1599999999999" y="800.8700000000001" as="targetPoint" />
          </mxGeometry>
        </mxCell>
        <mxCell id="2IEu2YH2djYl5DKp_pkP-5" value="" style="html=1;verticalAlign=bottom;labelBackgroundColor=none;endArrow=open;endFill=0;dashed=1;rounded=0;exitX=0.769;exitY=0.929;exitDx=0;exitDy=0;fontFamily=Poppins;fontSource=https%3A%2F%2Ffonts.googleapis.com%2Fcss%3Ffamily%3DPoppins;exitPerimeter=0;" parent="1" source="jtq-as74lgabXd-jvM-n-7" target="jtq-as74lgabXd-jvM-n-14" edge="1">
          <mxGeometry width="160" relative="1" as="geometry">
            <mxPoint x="337" y="588" as="sourcePoint" />
            <mxPoint x="425" y="568" as="targetPoint" />
          </mxGeometry>
        </mxCell>
        <mxCell id="jtq-as74lgabXd-jvM-n-2" value="Eatables" style="shape=umlFrame;whiteSpace=wrap;html=1;pointerEvents=0;width=210;height=40;fontFamily=Poppins;fontSource=https%3A%2F%2Ffonts.googleapis.com%2Fcss%3Ffamily%3DPoppins;" parent="1" vertex="1">
          <mxGeometry x="130" y="260" width="600" height="780" as="geometry" />
        </mxCell>
        <mxCell id="2IEu2YH2djYl5DKp_pkP-2" value="&amp;lt;&amp;lt;include&amp;gt;&amp;gt;" style="text;html=1;align=center;verticalAlign=middle;resizable=0;points=[];autosize=1;strokeColor=none;fillColor=none;rotation=0;fontFamily=Poppins;fontSource=https%3A%2F%2Ffonts.googleapis.com%2Fcss%3Ffamily%3DPoppins;" parent="1" vertex="1">
          <mxGeometry x="390" y="830" width="90" height="30" as="geometry" />
        </mxCell>
        <mxCell id="jtq-as74lgabXd-jvM-n-8" value="Submit Restaurant&lt;br&gt;request&amp;nbsp;" style="ellipse;whiteSpace=wrap;html=1;fontFamily=Poppins;fontSource=https%3A%2F%2Ffonts.googleapis.com%2Fcss%3Ffamily%3DPoppins;" parent="1" vertex="1">
          <mxGeometry x="200" y="820" width="140" height="70" as="geometry" />
        </mxCell>
        <mxCell id="jtq-as74lgabXd-jvM-n-45" value="Manage &lt;br&gt;review" style="ellipse;whiteSpace=wrap;html=1;fontFamily=Poppins;fontSource=https%3A%2F%2Ffonts.googleapis.com%2Fcss%3Ffamily%3DPoppins;" parent="1" vertex="1">
          <mxGeometry x="382.35" y="730" width="140" height="70" as="geometry" />
        </mxCell>
        <mxCell id="jtq-as74lgabXd-jvM-n-14" value="Write Review" style="ellipse;whiteSpace=wrap;html=1;fontFamily=Poppins;fontSource=https%3A%2F%2Ffonts.googleapis.com%2Fcss%3Ffamily%3DPoppins;" parent="1" vertex="1">
          <mxGeometry x="390" y="603" width="140" height="70" as="geometry" />
        </mxCell>
        <mxCell id="jtq-as74lgabXd-jvM-n-37" value="Add /Manage&lt;br&gt;items" style="ellipse;whiteSpace=wrap;html=1;fontFamily=Poppins;fontSource=https%3A%2F%2Ffonts.googleapis.com%2Fcss%3Ffamily%3DPoppins;" parent="1" vertex="1">
          <mxGeometry x="550" y="710" width="140" height="70" as="geometry" />
        </mxCell>
        <mxCell id="jtq-as74lgabXd-jvM-n-12" value="Add to&amp;nbsp;&lt;br&gt;Favourite" style="ellipse;whiteSpace=wrap;html=1;fontFamily=Poppins;fontSource=https%3A%2F%2Ffonts.googleapis.com%2Fcss%3Ffamily%3DPoppins;" parent="1" vertex="1">
          <mxGeometry x="400" y="483" width="140" height="70" as="geometry" />
        </mxCell>
        <mxCell id="2IEu2YH2djYl5DKp_pkP-8" value="" style="group;rotation=0;" parent="1" vertex="1" connectable="0">
          <mxGeometry x="297.65" y="510" width="84.7" height="40.28" as="geometry" />
        </mxCell>
        <mxCell id="jtq-as74lgabXd-jvM-n-32" value="&amp;lt;&amp;lt;extend&amp;gt;&amp;gt;" style="text;html=1;align=center;verticalAlign=middle;resizable=0;points=[];autosize=1;strokeColor=none;fillColor=none;rotation=-15;fontFamily=Poppins;fontSource=https%3A%2F%2Ffonts.googleapis.com%2Fcss%3Ffamily%3DPoppins;" parent="2IEu2YH2djYl5DKp_pkP-8" vertex="1">
          <mxGeometry x="3" y="9" width="90" height="30" as="geometry" />
        </mxCell>
        <mxCell id="jtq-as74lgabXd-jvM-n-33" value="" style="html=1;verticalAlign=bottom;labelBackgroundColor=none;endArrow=open;endFill=0;dashed=1;rounded=0;entryX=0.02;entryY=0.653;entryDx=0;entryDy=0;entryPerimeter=0;exitX=0.823;exitY=0.119;exitDx=0;exitDy=0;fontFamily=Poppins;fontSource=https%3A%2F%2Ffonts.googleapis.com%2Fcss%3Ffamily%3DPoppins;exitPerimeter=0;" parent="1" source="jtq-as74lgabXd-jvM-n-7" target="jtq-as74lgabXd-jvM-n-12" edge="1">
          <mxGeometry width="160" relative="1" as="geometry">
            <mxPoint x="309.9999999999993" y="602.9999999999999" as="sourcePoint" />
            <mxPoint x="391.96000000000004" y="550.12" as="targetPoint" />
          </mxGeometry>
        </mxCell>
        <mxCell id="2IEu2YH2djYl5DKp_pkP-6" value="&amp;lt;&amp;lt;extend&amp;gt;&amp;gt;" style="text;html=1;align=center;verticalAlign=middle;resizable=0;points=[];autosize=1;strokeColor=none;fillColor=none;rotation=5;fontFamily=Poppins;fontSource=https%3A%2F%2Ffonts.googleapis.com%2Fcss%3Ffamily%3DPoppins;" parent="1" vertex="1">
          <mxGeometry x="301.0588568297003" y="600.9996189432334" width="90" height="30" as="geometry" />
        </mxCell>
        <mxCell id="2IEu2YH2djYl5DKp_pkP-12" value="&amp;lt;&amp;lt;extend&amp;gt;&amp;gt;" style="text;html=1;align=center;verticalAlign=middle;resizable=0;points=[];autosize=1;strokeColor=none;fillColor=none;rotation=0;fontFamily=Poppins;fontSource=https%3A%2F%2Ffonts.googleapis.com%2Fcss%3Ffamily%3DPoppins;" parent="1" vertex="1">
          <mxGeometry x="449.9988568297003" y="689.9996189432334" width="90" height="30" as="geometry" />
        </mxCell>
        <mxCell id="2IEu2YH2djYl5DKp_pkP-13" value="" style="html=1;verticalAlign=bottom;labelBackgroundColor=none;endArrow=open;endFill=0;dashed=1;rounded=0;exitX=0.5;exitY=1;exitDx=0;exitDy=0;fontFamily=Poppins;fontSource=https%3A%2F%2Ffonts.googleapis.com%2Fcss%3Ffamily%3DPoppins;entryX=0.527;entryY=-0.04;entryDx=0;entryDy=0;entryPerimeter=0;" parent="1" target="jtq-as74lgabXd-jvM-n-45" edge="1">
          <mxGeometry width="160" relative="1" as="geometry">
            <mxPoint x="458.25" y="673.42" as="sourcePoint" />
            <mxPoint x="460.5400000000001" y="739.9999999999999" as="targetPoint" />
          </mxGeometry>
        </mxCell>
      </root>
    </mxGraphModel>
  </diagram>
</mxfile>
